{"title":"From Hell(2001)MPEG-4[DaScubaDude]","magnet":"magnet:?xt=urn:btih:4083a69d6a434057fc19ed0ffdca30c90f88078c&dn=From+Hell%282001%29MPEG-4%5BDaScubaDude%5D&tr=udp%3A%2F%2Ftracker.leechers-paradise.org%3A6969&tr=udp%3A%2F%2Fzer0day.ch%3A1337&tr=udp%3A%2F%2Fopen.demonii.com%3A1337&tr=udp%3A%2F%2Ftracker.coppersurfer.tk%3A6969&tr=udp%3A%2F%2Fexodus.desync.com%3A6969","uploader":"dascuba","categoryP":"video","categoryS":"movies","size":"1219141993","seeders":"5","leechers":"17","description":"From Hell (2001)\r\nR | 2h 2min | Horror, Mystery, Thriller | 19 October 2001 (USA)\r\nGeneral\r\nComplete name                            : From HellFROMHELLDTSTHX_D1_Title1.mp4\r\nFormat                                   : MPEG-4\r\nFormat profile                           : Base Media\r\nCodec ID                                 : isom (isom/iso2/avc1/mp41)\r\nFile size                                : 1.14 GiB\r\nDuration                                 : 2 h 2 min\r\nOverall bit rate                         : 1 330 kb/s\r\nMovie name                               : FROMHELLDTSTHX_D1\r\nGenre                                    : Thriller\r\nWriting application                      : Lavf54.6.100\r\n\r\nVideo\r\nID                                       : 1\r\nFormat                                   : AVC\r\nFormat/Info                              : Advanced Video Codec\r\nFormat profile                           : <a class=\"__cf_email__\" href=\"/cdn-cgi/l/email-protection\" data-cfemail=\"4b092a382e2722252e0b0778\">[email&#xA0;protected]</a><script data-cfhash=\"f9e31\" type=\"text/javascript\">/* <![CDATA[ */!function(t,e,r,n,c,a,p){try{t=document.currentScript||function(){for(t=document.getElementsByTagName('script'),e=t.length;e--;)if(t[e].getAttribute('data-cfhash'))return t[e]}();if(t&&(c=t.previousSibling)){p=t.parentNode;if(a=c.getAttribute('data-cfemail')){for(e='',r='0x'+a.substr(0,2)|0,n=2;a.length-n;n+=2)e+='%'+('0'+('0x'+a.substr(n,2)^r).toString(16)).slice(-2);p.replaceChild(document.createTextNode(decodeURIComponent(e)),c)}p.removeChild(t)}}catch(u){}}()/* ]]> */</script>\r\nFormat settings, CABAC                   : No\r\nFormat settings, RefFrames               : 6 frames\r\nCodec ID                                 : avc1\r\nCodec ID/Info                            : Advanced Video Coding\r\nDuration                                 : 2 h 2 min\r\nBit rate                                 : 1 195 kb/s\r\nWidth                                    : 720 pixels\r\nHeight                                   : 404 pixels\r\nDisplay aspect ratio                     : 16:9\r\nFrame rate mode                          : Constant\r\nFrame rate                               : 29.970 (30000/1001) FPS\r\nColor space                              : YUV\r\nChroma subsampling                       : 4:2:0\r\nBit depth                                : 8 bits\r\nScan type                                : Progressive\r\nBits/(Pixel*Frame)                       : 0.137\r\nStream size                              : 1.02 GiB (90%)\r\n\r\nAudio\r\nID                                       : 2\r\nFormat                                   : AAC\r\nFormat/Info                              : Advanced Audio Codec\r\nFormat profile                           : LC\r\nCodec ID                                 : 40\r\nDuration                                 : 2 h 2 min\r\nBit rate mode                            : Constant\r\nBit rate                                 : 128 kb/s\r\nChannel(s)                               : 2 channels\r\nChannel positions                        : Front: L R\r\nSampling rate                            : 44.1 kHz\r\nFrame rate                               : 43.066 FPS (1024 spf)\r\nCompression mode                         : Lossy\r\nStream size                              : 112 MiB (10%)\r\nDefault                                  : Yes\r\nAlternate group                          : 1","last_updated":"2017-08-13T12:04:44.748Z","parsed":{"xt":"urn:btih:4083a69d6a434057fc19ed0ffdca30c90f88078c","dn":"From Hell(2001)MPEG-4[DaScubaDude]","tr":["udp://exodus.desync.com:6969","udp://open.demonii.com:1337","udp://tracker.coppersurfer.tk:6969","udp://tracker.leechers-paradise.org:6969","udp://zer0day.ch:1337"],"infoHash":"4083a69d6a434057fc19ed0ffdca30c90f88078c","infoHashBuffer":{"type":"Buffer","data":[64,131,166,157,106,67,64,87,252,25,237,15,253,202,48,201,15,136,7,140]},"name":"From Hell(2001)MPEG-4[DaScubaDude]","announce":["udp://exodus.desync.com:6969","udp://open.demonii.com:1337","udp://tracker.coppersurfer.tk:6969","udp://tracker.leechers-paradise.org:6969","udp://zer0day.ch:1337"],"urlList":[]}}